:SAMPLES-PER-SECOND 30
:FULLY-SPECIFIED
:DEGREES
17
root  -89.29 37.4334 -0.588963 -137.159 78.7306 -135.339
RightUpLeg  -27.0374 3.83321 9.69417
RightLeg  21.0789 2.29902 -2.94515
RightFoot  6.01906 0.658703 -3.91537
RightToes  1.74622e-010 -3.18055e-015 8.94531e-016
Spine  -3.39166 -7.60764 0.347199
Spine1  14.4134 -10.7439 10.2162
HEad  -8.09993 8.75724 0.0540939
LeftShoulder1  0 -2.69403e-036 -1.28585e-037
LeftArm  6.70089 8.48939 -82.0977
LeftForeArm  -38.3475 -34.7621 21.0844
LeftHand  0.854766 6.40934 2.30111
RightShoulder  -2.48481e-017 0 -8.08114e-019
RightArm  -0.122439 -62.7583 74.9636
RightForeArm  -12.9255 11.4848 3.51701
RightHand  1.25486 -12.5055 -0.484724
LeftUpLeg  8.78559 -5.51988 13.1124
LeftLeg  40.08 -8.92095 1.71234
LeftFoot  16.9888 2.61981 -9.43374
LeftToes  -8.00353e-011 5.68142e-011 4.78552e-012
18
root  -87.5786 37.445 -0.485728 -135.234 78.0227 -133.06
RightUpLeg  -25.4695 2.56756 11.4708
RightLeg  24.491 2.99673 -3.22437
RightFoot  1.32778 0.586625 -4.62614
RightToes  1.74622e-010 -3.18055e-015 8.94531e-016
Spine  -2.45593 -6.99142 2.03575
Spine1  14.7686 -9.93463 10.4356
HEad  -8.28084 7.28199 0.788865
LeftShoulder1  0 -2.69403e-036 -1.28585e-037
LeftArm  10.1976 12.0874 -84.9041
LeftForeArm  -40.1459 -30.5107 19.1794
LeftHand  0.891526 6.54232 0.345595
RightShoulder  -2.48481e-017 0 -8.08114e-019
RightArm  -6.62284 -57.7173 79.2309
RightForeArm  -12.1775 11.489 3.08838
RightHand  1.31448 -12.6731 -1.24563
LeftUpLeg  2.43595 -6.40973 13.7184
LeftLeg  50.0307 -7.8827 4.60148
LeftFoot  21.1934 2.22149 -6.91575
LeftToes  -8.00353e-011 5.68142e-011 4.78552e-012
19
root  -85.7664 37.7816 -0.407609 -135.143 78.1339 -132.94
RightUpLeg  -22.1865 2.24858 12.0843
RightLeg  24.497 3.09567 -3.17799
RightFoot  -1.42103 0.472921 -4.60572
RightToes  1.74622e-010 -3.18055e-015 8.94531e-016
Spine  -2.49214 -6.14249 2.73801
Spine1  14.9306 -8.92419 10.0706
HEad  -7.71291 5.53323 1.47768
LeftShoulder1  0 -2.69403e-036 -1.28585e-037
LeftArm  15.3209 16.2527 -87.3458
LeftForeArm  -43.3088 -26.2471 17.3507
LeftHand  0.85717 6.24293 -0.376587
RightShoulder  -2.48481e-017 0 -8.08114e-019
RightArm  -7.645 -51.9672 82.3492
RightForeArm  -15.3528 13.0946 1.36169
RightHand  1.41903 -12.8449 -2.74197
LeftUpLeg  -4.04764 -6.64655 13.052
LeftLeg  56.5953 -7.76449 6.6707
LeftFoot  18.9482 1.40961 -4.65724
LeftToes  -8.00353e-011 5.68142e-011 4.78552e-012
20
root  -83.9341 38.2406 -0.381159 -135.119 78.9041 -132.992
RightUpLeg  -18.3359 3.22538 12.0106
RightLeg  23.1225 2.63491 -3.16179
RightFoot  -3.25633 0.427762 -4.93764
RightToes  1.74622e-010 -3.18055e-015 8.94531e-016
Spine  -2.783 -5.11561 3.4911
Spine1  14.9224 -7.53939 8.91329
HEad  -7.08462 4.10705 1.65553
LeftShoulder1  0 -2.69403e-036 -1.28585e-037
LeftArm  13.6968 21.1163 -88.6127
LeftForeArm  -39.6139 -23.721 12.502
LeftHand  0.839487 6.12628 -0.202016
RightShoulder  -2.48481e-017 0 -8.08114e-019
RightArm  -0.432312 -46.3769 84.7303
RightForeArm  -25.0419 16.7154 -3.44316
RightHand  1.52549 -12.9845 -4.26272
LeftUpLeg  -9.93065 -6.54755 11.441
LeftLeg  59.0584 -8.20049 6.76713
LeftFoot  15.027 0.921691 -3.45747
LeftToes  -8.00353e-011 5.68142e-011 4.78552e-012
21
root  -82.1036 38.6211 -0.390824 -133.693 80.526 -131.576
RightUpLeg  -14.4244 4.73599 11.4414
RightLeg  21.655 2.06472 -3.04276
RightFoot  -5.38929 0.362514 -5.32981
RightToes  1.74622e-010 -3.18055e-015 8.94531e-016
Spine  -3.19323 -3.73563 4.70162
Spine1  15.1606 -5.45953 6.66687
HEad  -6.91549 2.48706 1.93682
LeftShoulder1  0 -2.69403e-036 -1.28585e-037
LeftArm  10.5009 26.4919 -88.9143
LeftForeArm  -34.9881 -22.1145 8.2834
LeftHand  0.873136 6.33382 -0.759683
RightShoulder  -2.48481e-017 0 -8.08114e-019
RightArm  12.8282 -41.5299 86.5715
RightForeArm  -40.3318 19.9245 -12.4707
RightHand  1.60456 -13.0732 -5.3843
LeftUpLeg  -14.7647 -6.09806 9.1806
LeftLeg  57.9941 -8.89202 5.11558
LeftFoot  12.0534 0.840863 -3.56065
LeftToes  -8.00353e-011 5.68142e-011 4.78552e-012
22
root  -80.2601 38.9466 -0.399028 -129.58 82.8077 -127.363
RightUpLeg  -10.0961 5.45007 10.6139
RightLeg  19.5459 2.57226 -2.58272
RightFoot  -6.80451 0.311177 -5.58864
RightToes  1.74622e-010 -3.18055e-015 8.94531e-016
Spine  -3.49133 -2.06816 6.03209
Spine1  15.404 -2.86682 3.43604
HEad  -7.11503 0.529337 2.72076
LeftShoulder1  0 -2.69403e-036 -1.28585e-037
LeftArm  9.85971 32.0277 -88.4223
LeftForeArm  -34.397 -21.3744 6.43361
LeftHand  0.898636 6.45397 -1.87549
RightShoulder  -2.48481e-017 0 -8.08114e-019
RightArm  20.6928 -37.2171 87.1215
RightForeArm  -49.2733 21.3714 -20.4634
RightHand  1.61936 -12.8637 -6.17919
LeftUpLeg  -18.5665 -5.07797 6.79058
LeftLeg  53.9908 -9.47424 3.17391
LeftFoot  8.88898 0.786854 -3.85718
LeftToes  -8.00353e-011 5.68142e-011 4.78552e-012
23
root  -78.4646 39.2074 -0.420224 -121.14 84.6167 -118.881
RightUpLeg  -5.92397 5.48145 10.0782
RightLeg  17.3083 3.70522 -2.19629
RightFoot  -7.33597 0.308027 -6.03607
RightToes  1.74622e-010 -3.18055e-015 8.94531e-016
Spine  -3.35349 -0.620149 7.59528
Spine1  15.2331 -0.544013 0.217985
HEad  -7.38252 -1.09028 3.50811
LeftShoulder1  0 -2.69403e-036 -1.28585e-037
LeftArm  9.15033 37.5043 -87.0856
LeftForeArm  -35.9452 -21.1649 5.85513
LeftHand  0.918012 6.56213 -2.68487
RightShoulder  -2.48481e-017 0 -8.08114e-019
RightArm  17.5275 -32.7939 86.2228
RightForeArm  -45.9347 24.4367 -22.8408
RightHand  1.58473 -12.4538 -6.71769
LeftUpLeg  -21.6484 -3.8224 5.1197
LeftLeg  47.0592 -9.42889 2.09149
LeftFoot  5.4873 0.788308 -4.63839
LeftToes  -8.00353e-011 5.68142e-011 4.78552e-012
